/vscmnt/brussel_pixiu_data/_data_brussel/112/vsc11236/PredSimResults/SUBJ04opt3D/expIG/worker_12.mot
version=1
nRows=4
nColumns=50
inDegrees=yes
endheader
                time	         pelvis_tilt	         pelvis_list	     pelvis_rotation	           pelvis_tx	           pelvis_ty	           pelvis_tz	       hip_flexion_r	     hip_adduction_r	      hip_rotation_r	        knee_angle_r	       ankle_angle_r	         mtp_angle_r	       hip_flexion_l	     hip_adduction_l	      hip_rotation_l	        knee_angle_l	       ankle_angle_l	         mtp_angle_l	    lumbar_extension	      lumbar_bending	     lumbar_rotation	 ercspn_r/activation	 intobl_r/activation	 extobl_r/activation	    abd_r/activation	    add_r/activation	hamstrings_r/activation	bifemsh_r/activation	glut_max_r/activation	iliopsoas_r/activation	rect_fem_r/activation	  vasti_r/activation	gastroc_r/activation	 soleus_r/activation	tib_ant_r/activation	 ercspn_l/activation	 intobl_l/activation	 extobl_l/activation	    abd_l/activation	    add_l/activation	hamstrings_l/activation	bifemsh_l/activation	glut_max_l/activation	iliopsoas_l/activation	rect_fem_l/activation	  vasti_l/activation	gastroc_l/activation	 soleus_l/activation	tib_ant_l/activation	
          0.43581684	         -5.76500743	          1.37196315	         -5.81483830	          0.74088863	          0.87003195	          0.00307934	        -14.46221585	         -1.08600965	         -4.94830753	        -11.78491417	          4.40540494	         35.33788260	         36.63869858	          0.06906895	         -4.89529571	        -17.66150679	         11.11321250	          0.34240945	        -12.14073522	         -1.56335240	         11.29741166	          0.09185745	          0.00999999	          0.00999999	          0.02256587	          0.04640261	          0.03339983	          0.24530450	          0.01720420	          0.34994340	          0.00999999	          0.01502193	          0.30028493	          0.19676126	          0.00999999	          0.14269018	          0.12747168	          0.01720420	          0.01145271	          0.39084392	          0.22768096	          0.04610547	          0.00999999	          0.18513794	          0.01647219	          0.09270820	          0.01145271	          0.01145271	          0.48533470	
          0.44453318	         -5.77270765	          1.45505818	         -5.62754468	          0.75863736	          0.86761240	          0.00275066	        -14.57048481	         -1.31859638	         -5.44901566	        -13.68854475	          3.59284267	         36.99341942	         36.37807802	          0.51290871	         -4.75042267	        -18.29691245	         10.64067892	          0.34204206	        -11.73381490	         -1.98181950	         11.50555469	          0.10365074	          0.00999999	          0.00999999	          0.01970350	          0.06555971	          0.07958629	          0.21418880	          0.01502193	          0.32529243	          0.00999999	          0.01311647	          0.26219523	          0.17180304	          0.00999999	          0.12459062	          0.11130251	          0.01502193	          0.00999999	          0.40511644	          0.20614252	          0.04025721	          0.03476242	          0.16165408	          0.01438277	          0.19111800	          0.00999999	          0.00999999	          0.52331415	
          0.45324952	         -5.76911836	          1.57311101	         -5.43209599	          0.77655241	          0.86518295	          0.00240956	        -14.47127223	         -1.61876422	         -5.95250887	        -16.00758359	          2.76477348	         38.45223211	         35.96590468	          0.92408045	         -4.40813857	        -19.39545490	         10.17493341	          0.28447139	        -11.31456804	         -2.43885768	         11.66888421	          0.09814640	          0.01197618	          0.00999999	          0.01720420	          0.12343068	          0.06949115	          0.18701998	          0.01311647	          0.28403065	          0.00999999	          0.01145271	          0.22893703	          0.15001065	          0.00999999	          0.10878690	          0.09718432	          0.01311647	          0.06700417	          0.35372937	          0.18435457	          0.03515078	          0.03035298	          0.14114904	          0.01255838	          0.25345597	          0.02584407	          0.03389833	          0.53235148	
          0.46196585	         -5.75879766	          1.73798451	         -5.22505961	          0.79449878	          0.86287996	          0.00202089	        -14.12884650	         -2.00598374	         -6.46217540	        -18.76662875	          1.89180880	         39.58823790	         35.35158061	          1.35835832	         -4.05644967	        -20.34689913	         10.01719387	          0.26574452	        -10.89767383	         -2.94258368	         11.77922259	          0.08569700	          0.01045706	          0.00999999	          0.01502193	          0.10777409	          0.06067653	          0.16329740	          0.01145271	          0.34353668	          0.00999999	          0.00999999	          0.19989747	          0.13098252	          0.00999999	          0.09498780	          0.08485696	          0.01145271	          0.15113096	          0.30886050	          0.16097008	          0.03069207	          0.14503012	          0.12324496	          0.01096541	          0.26334131	          0.02256587	          0.02959849	          0.61504757	
